<svg xmlns="http://www.w3.org/2000/svg" viewBox="0 0 24 24" fill="#4a90e2">
  <path d="M13.75 2.5c1.1 0 2 .9 2 2s-.9 2-2 2-2-.9-2-2 .9-2 2-2zm-3.2 3.8c-.1 0-.2.1-.3.1L7.5 7.9c-.4.2-.7.6-.7 1.1 0 .4.2.8.5 1l1.1.8-1.7 4.6-2.3-.6c-.6-.2-1.2.2-1.4.8-.2.6.2 1.2.8 1.4l3 .8c.5.1 1.1-.1 1.3-.6l1.5-3.7 1.1 1.3v5c0 .7.6 1.2 1.2 1.2s1.2-.5 1.2-1.2v-5.4c0-.3-.1-.6-.3-.8l-1.5-1.8.7-1.6 1.2 1.2c.2.2.5.3.8.3.2 0 .5-.1.7-.2l2.5-1.7c.5-.3.6-1 .3-1.5-.3-.5-1-.6-1.5-.3l-2 1.4-2.1-2.1c-.3-.3-.7-.5-1.1-.5h-.4z"/>
</svg>